<svg xmlns="http://www.w3.org/2000/svg" width="1024" height="1024" viewBox="0 0 1024 1024" version="1.1"><path d="M 0 512.001 L 0 1024.002 512.250 1023.751 L 1024.500 1023.500 1024.751 511.750 L 1025.002 0 512.501 0 L 0 0 0 512.001 M 0.496 512.500 C 0.496 794.100, 0.610 909.151, 0.750 768.168 C 0.890 627.186, 0.890 396.786, 0.750 256.168 C 0.610 115.551, 0.496 230.900, 0.496 512.500 M 280 165.109 C 244.208 169.163, 214.867 183.134, 189.958 207.985 C 168.703 229.189, 155.374 253.667, 149.586 282.121 C 146.097 299.274, 145.879 315.064, 146.246 524 C 146.606 729.153, 146.610 729.519, 148.747 740.500 C 154.826 771.752, 167.911 796.983, 188.961 818.045 C 214.883 843.982, 247.413 858.061, 288 860.910 C 304.359 862.059, 721.032 862.012, 736 860.860 C 759.541 859.048, 779.059 853.982, 797.229 844.966 C 844.122 821.698, 872.772 778.130, 877.010 723.637 C 878.263 707.538, 878.263 318.462, 877.010 302.363 C 874.042 264.197, 860.290 234.155, 833.563 207.445 C 808.519 182.417, 781.324 169.533, 744.026 165.024 C 733.599 163.764, 291.164 163.844, 280 165.109 M 528 442.840 C 528 588.706, 527.936 593.930, 526.065 601.244 C 521.213 620.217, 511.322 629.764, 494.311 631.892 C 490.468 632.372, 484.668 632.358, 481 631.858 C 459.376 628.914, 448.549 611.909, 446.074 577.006 C 445.559 569.745, 444.911 563.577, 444.633 563.299 C 444.169 562.836, 354.695 572.348, 347.250 573.653 L 344 574.223 344.004 585.861 C 344.013 611.296, 351.413 638.825, 363.766 659.377 C 369.540 668.984, 383.852 684.387, 394.036 691.955 C 417.416 709.327, 445.978 717.814, 487 719.578 C 523.142 721.132, 556.587 715.175, 580.729 702.883 C 616.430 684.707, 637.726 655.220, 646.728 611.500 C 648.207 604.316, 648.410 587.615, 648.717 447.750 L 649.060 292 588.530 292 L 528 292 528 442.840" stroke="none" fill="#fbfbfb" fill-rule="evenodd"/><path d="M 280 165.109 C 244.208 169.163, 214.867 183.134, 189.958 207.985 C 168.703 229.189, 155.374 253.667, 149.586 282.121 C 146.097 299.274, 145.879 315.064, 146.246 524 C 146.606 729.153, 146.610 729.519, 148.747 740.500 C 154.826 771.752, 167.911 796.983, 188.961 818.045 C 214.883 843.982, 247.413 858.061, 288 860.910 C 304.359 862.059, 721.032 862.012, 736 860.860 C 759.541 859.048, 779.059 853.982, 797.229 844.966 C 844.122 821.698, 872.772 778.130, 877.010 723.637 C 878.263 707.538, 878.263 318.462, 877.010 302.363 C 874.042 264.197, 860.290 234.155, 833.563 207.445 C 808.519 182.417, 781.324 169.533, 744.026 165.024 C 733.599 163.764, 291.164 163.844, 280 165.109 M 528 442.840 C 528 588.706, 527.936 593.930, 526.065 601.244 C 521.213 620.217, 511.322 629.764, 494.311 631.892 C 490.468 632.372, 484.668 632.358, 481 631.858 C 459.376 628.914, 448.549 611.909, 446.074 577.006 C 445.559 569.745, 444.911 563.577, 444.633 563.299 C 444.169 562.836, 354.695 572.348, 347.250 573.653 L 344 574.223 344.004 585.861 C 344.013 611.296, 351.413 638.825, 363.766 659.377 C 369.540 668.984, 383.852 684.387, 394.036 691.955 C 417.416 709.327, 445.978 717.814, 487 719.578 C 523.142 721.132, 556.587 715.175, 580.729 702.883 C 616.430 684.707, 637.726 655.220, 646.728 611.500 C 648.207 604.316, 648.410 587.615, 648.717 447.750 L 649.060 292 588.530 292 L 528 292 528 442.840" stroke="none" fill="#537bfc" fill-rule="evenodd"/></svg>